<?xml version="1.0" standalone="no"?>
<!DOCTYPE svg PUBLIC "-//W3C//DTD SVG 20010904//EN"
 "http://www.w3.org/TR/2001/REC-SVG-20010904/DTD/svg10.dtd">
<svg version="1.0" xmlns="http://www.w3.org/2000/svg"
 width="96.000000pt" height="96.000000pt" viewBox="0 0 96.000000 96.000000"
 preserveAspectRatio="xMidYMid meet">

<g transform="translate(0.000000,96.000000) scale(0.100000,-0.100000)"
fill="#FFFFFF" stroke="#FFFFFF">
<path fill="#FFFFFF" d="M744 855 c-19 -19 -24 -34 -23 -64 3 -48 -41 -109 -81 -110 -14 -1
-31 -5 -39 -10 -21 -13 -121 38 -121 62 0 29 -45 67 -80 67 -35 0 -80 -38 -80
-67 0 -24 -100 -75 -121 -62 -47 29 -119 -13 -119 -71 0 -41 39 -80 80 -80 35
0 80 38 80 67 0 13 17 27 52 44 43 21 58 23 81 15 18 -7 36 -7 55 0 22 8 37 6
80 -15 35 -17 52 -31 52 -44 0 -29 45 -67 80 -67 45 0 82 40 79 84 -5 49 43
116 83 116 39 0 78 40 78 80 0 70 -86 105 -136 55z"/>
<path fill="#FFFFFF" d="M744 415 c-19 -19 -25 -34 -23 -58 5 -49 -45 -114 -90 -119 -45 -6
-110 44 -110 85 -1 38 -42 77 -81 77 -30 0 -80 -37 -80 -59 0 -6 -30 -19 -67
-30 -58 -18 -68 -18 -87 -5 -51 35 -126 -4 -126 -66 0 -41 39 -80 80 -80 30 0
80 37 80 59 0 6 30 19 66 30 60 18 69 18 90 5 13 -9 36 -14 53 -12 43 4 110
-47 111 -85 0 -16 10 -38 25 -52 53 -54 138 -13 134 63 -4 53 41 112 83 112
39 0 78 40 78 80 0 71 -86 105 -136 55z"/>
</g>
</svg>
